<mxfile host="app.diagrams.net" modified="2023-05-03T02:50:34.844Z" agent="Mozilla/5.0 (Windows NT 10.0; Win64; x64) AppleWebKit/537.36 (KHTML, like Gecko) Chrome/112.0.0.0 Safari/537.36" etag="3ThTZezOYa8i8w6kj2dE" version="21.2.6" type="device">
  <diagram name="페이지-1" id="QteojWJHMus-L_vtBPhq">
    <mxGraphModel dx="1434" dy="764" grid="1" gridSize="10" guides="1" tooltips="1" connect="1" arrows="1" fold="1" page="1" pageScale="1" pageWidth="827" pageHeight="1169" math="0" shadow="0">
      <root>
        <mxCell id="0" />
        <mxCell id="1" parent="0" />
        <mxCell id="n3wLBkn1owKT0AHgR__0-2" value="select" style="rounded=1;whiteSpace=wrap;html=1;absoluteArcSize=1;arcSize=14;strokeWidth=2;" vertex="1" parent="1">
          <mxGeometry x="258.32" y="210" width="80" height="70" as="geometry" />
        </mxCell>
        <mxCell id="n3wLBkn1owKT0AHgR__0-3" value="insert" style="rounded=1;whiteSpace=wrap;html=1;absoluteArcSize=1;arcSize=14;strokeWidth=2;" vertex="1" parent="1">
          <mxGeometry x="348.32" y="210" width="80" height="70" as="geometry" />
        </mxCell>
        <mxCell id="n3wLBkn1owKT0AHgR__0-4" value="update" style="rounded=1;whiteSpace=wrap;html=1;absoluteArcSize=1;arcSize=14;strokeWidth=2;" vertex="1" parent="1">
          <mxGeometry x="438.32" y="210" width="80" height="70" as="geometry" />
        </mxCell>
        <mxCell id="n3wLBkn1owKT0AHgR__0-5" value="delete" style="rounded=1;whiteSpace=wrap;html=1;absoluteArcSize=1;arcSize=14;strokeWidth=2;" vertex="1" parent="1">
          <mxGeometry x="528.32" y="210" width="80" height="70" as="geometry" />
        </mxCell>
        <mxCell id="n3wLBkn1owKT0AHgR__0-9" value="where" style="rounded=1;whiteSpace=wrap;html=1;absoluteArcSize=1;arcSize=14;strokeWidth=2;" vertex="1" parent="1">
          <mxGeometry x="388.32" y="310" width="90" height="80" as="geometry" />
        </mxCell>
        <mxCell id="n3wLBkn1owKT0AHgR__0-10" value="orderby" style="rounded=1;whiteSpace=wrap;html=1;absoluteArcSize=1;arcSize=14;strokeWidth=2;" vertex="1" parent="1">
          <mxGeometry x="388.32" y="420" width="90" height="80" as="geometry" />
        </mxCell>
        <mxCell id="n3wLBkn1owKT0AHgR__0-11" value="" style="shape=stencil(lZzZkhy3EUW/Zl4R2JdnWf4PRYgyJ0yTCoq2pb834Al0V13UHEy9NYc3q1FArjcT/RJ++uPzL79/evH2jx/fv/3z039ff/3x+SX87cX716+fP31//dE/vYSfX8JPv337/ukf37/9++uvb//+/ZeBHJ/+9e0/4wl/vslZk+MQ8vavtz8UE8P///D3N/iX169neDjBqykJ4f4Ed9bUeAfv5xe+h3dnfDSt3MGX3XrOeO+Mu4WPpnjE2zO+msj7ecYHb7y7g0+m2Tv4ZiK/7xkf+3nVO/hkEp+X4Ktxd/YnWRPvrCf5eYIfxEeT8h18vne+qRp/C99Mazfw2ZlyZ/9zuLc/uZ/vnfXnYhLby9k/5K6fvP509m7OBPQn5Wy/JRiH66nn9ZdoKupDk+dnk8AenbHinQueb/dO7Yxv6B/6bpz3p1rj4X3dPJ0Hvq8QzteZnBVfcP2lnvEez9eZWs74YCw+v533p0b0J95YWU8yDvbTGyfvm42F9XfvLeG0YHy5wlfQ574eWX81Cfyhn2/3wDcTQJ/7/pzX0yzuZ9//qPgGz3fTmh74m/rTPL6vU3tvwXhcj+hzi8ajfurzk7Foj3XBV/APfkbnA76BPgQTBJ9R3+KM5gd8AP+QZ/J4wEfYz4c2HvCUDzinCt0FMh1YnP7sIFDpBIpmuF2AXG4/Mz2DYjydWQ+JTgUoSfHNlOUbSCtCd2rnsNR62kRq0c+hqQDlfTHMVzwIFPiGWBZLrtMXXAokv6hGw1CcyqIaDW2zpz65qQAlBznPBRwFQPmKncHrKABL6tlDSosAqEbp57p+Awj0+BvcLYEwC4aPCqTFx/Mu9RAWl3PwcA519Rpdl0A16kMRDgLk5rtAlSVltIe21MUjkMA79DgWl8hcwC/1QBYltQgzObkWCGrTI9eEXeqhrJy/IfNJP2PNoZpoJFBm8DuUTxkcWRcQXer1H+WbwwstBSkFoKFqZ5sOBTOMLiDaGoKptK1NnUCw6JfGks6q4fu+0S41zcJ6nKcqZOzSeVtHIUNLqhrjXJ2VyXsCTgSSCbStRS3OecwMu0A5v/Sglkg1ypK7YWk08MqMkZNpS+KQkWoZeC94x3hRi8RqlDUXTnxkSWupiFROdxfiwSJGz7YE9MAHbGfK8sSTr+hhxOrzaX9qWLg3TJ17JS37w6VF97ZWn+9Bf4qfleJDoadJXGcjVZM8Nx3+NT5qbfco/q/xVrMdpj5TnuY08b20g+f3BC94wZPjjYsP6jEXzjdGta8HeXSNt2ov/PweJ6yuh+JADxNJz8uC/o8oofhI1ENZ8URtd3OVQOZnaniNX7gQz6X4kkOxPY6Istg7le5Z9SEaC/vfA5BNgsf1hNUf0v73eFWD4BPhF+4qIrXa8ZI8Ray4ejj0WfAYH7V1wZ2UptqfkHiruvkJeYSiPFpC2nyhHZh1Tpr+JNS0x5s94cS5ReVIM+plV7MqcAcbGSa/9oQHJoiKwCPyzVLs5ekk3qOPpWKYO/se+y1s/IZcF4dcsKSyS72D9m3nRnz06V6zQWJUrAbnvOlLWtWZgm0Eq09PuBix1Yyefkm8MnLeds1LKa+z05IP1sQdHLVVbrBUr4tBFWtqfJQju/VUKaVz6sWYRLiAUwLiNJ/L05O896pqHtSZePTpD+bBjeOscFaConBsE3pdu8O1O127vWce5N8vjI9bootpE6ly4Tj4Vf0SbPCYbsLrEoaxmxLV+Mg8/JoTUArhtReR8FTD5BsO+QyoWFDz4EZunG2KQzIGr5rWXIzaHEndUsR9z5rPRJzhWfjWOM/tndQtal5LqVvVIB/RtNuMXE+4IxVbqqKIOYR79BcPVQI1KJ1m8QEpTfcogp54qtpd0AAVsJUz5pmU1cB+V9aOfuCqZWFYA4aFUdUpq0HrGUaueDrfZ5H1rGIL5bdlIRoxjetVtQRZZh161R6VFaAYPlgBL3iKm4N1KIIn/bxiNciDx6rpFj9/sDLKalD8GaxPEDw2iJfYbLEpMVgrfT452lxXPGWjZZl4cOiuStZkwTEL2HTix2Hbc7CS5/PyzGIWZek8soBt8Z9+LvA91jZL92IWQu+xwjpBiPvT8iTBPuY/W9HzitxnKysrQ6xJWxqqCQvm0Ui8UyyN52vFgftftd4vW7y0OtHfjvWLPrNDHK0goRk91h1dQDR6tIJ4SyWDGEFq08MTm7EYVLtAkv4XR+G2Rr28W5KGbcuDRXYpK0LgnlzTBliPPRsBTZ08Dq+2JXaM6VvuyQn1lSI3tRfiLntugiXt5OeGA5TdH9mlC57JgflJ1EyB7pKxT+j0qGtlotVpiGqBfYydQyMPgYyEZV243M10znP24CHQkLyuy0kPE4GXvpwKocR6nTs5mMi1xDLaspNYp2e2EsuAzlbiagaI5sly1gi32akxx7QMPpFzSuViaIiCbnr4iYMAXfuIRdmjoU/UrAtXc0zUHasXS6LCJURNNIZN0GhuW2yC72Y8yZGDAA7zOq11GnvwMZtoVQB7ZHEZ0yvIFLuFgxyziZBvr8dQkN7Kmj0MPA+g+gUPjiks455MRHodmG9MLToNiWM6lFse64ArX0CQ2JA2F4hk3mkMGCO9qPi4uUAk9EaPVRSgrTY1x9waMruS6/XoyKS3lNeNL5Q5bVo3y11iTbfH7CA+Xwysh1LumEmqOgb4cT068J/xQty6nrRrIkjywhnbuj8BW37L/le+YLU0uSvXy3a2dw54ap9aHbCvdnMhSGJrL+ipeLFKZ/Ycg6Y8rLLUY0iTOyGynoiheyn3x4Um3E9tnfCU0NquaJsLd5KOby98KX53oUzxuwtrit9diNNZgN2FO8XvLvQpfndhUPG7C4mK3114VPzuQqXgtxc2Fb+7EKr43YVTwW8vtCp+d2FW8bsLuYLfXvjVoavdhWLF7y4sC357IVrxuwvXit9d6NYhyN2Fccnqd/fRrbJpfNvdalebnaFyDZsJFOEBdi12CdVlY1nrwAoqphTPBZuxdmb5H4VH3XdeTNLF8KumZfjgziX33TFlPSZWgrs/qMDw/uH52w2/vX758vbTD8f/19966H96+52I8PP/AA==);lineShape=1;" vertex="1" parent="1">
          <mxGeometry x="240" y="90" width="400" height="450" as="geometry" />
        </mxCell>
        <mxCell id="n3wLBkn1owKT0AHgR__0-12" value="&lt;font style=&quot;font-size: 15px;&quot;&gt;관리객체&lt;/font&gt;" style="text;strokeColor=none;align=center;fillColor=none;html=1;verticalAlign=middle;whiteSpace=wrap;rounded=0;" vertex="1" parent="1">
          <mxGeometry x="398.32" y="30" width="70" height="60" as="geometry" />
        </mxCell>
        <mxCell id="n3wLBkn1owKT0AHgR__0-15" value="&lt;span style=&quot;font-size: 15px;&quot;&gt;console&lt;/span&gt;" style="text;html=1;align=center;verticalAlign=middle;resizable=0;points=[];autosize=1;strokeColor=none;fillColor=none;" vertex="1" parent="1">
          <mxGeometry x="45" y="120" width="80" height="30" as="geometry" />
        </mxCell>
        <mxCell id="n3wLBkn1owKT0AHgR__0-16" value="" style="shape=stencil(lVbZctswDPwave4QAA/wOU3/IzNxak1dO+O419+XqkZOCKtw9UaRXHFx7JKDPLztn153A4e3y/n0dfdzfL7sB/k0MI/H/e48XtpokMdBHl5O592X8+n78Xn+fn2adk6jb6cf0x9+zbjKSGVCcfg9zxChxL8zn2fAYTx+BAhy6AAsYHEACdoDRJGSA2jL1AGSghwAhYDQH6EZ5HEqEO0ANSDlfwO02iBqRHLSVBQh94CC7FDKAukLUeuSh1VALODaV+49D6sIIcRqjwgOJ7pSvgIyCjtRg0zQspBcPwDUx9zyTE7MwYasEdnhc1297g8+H0Hpy1zyoo9VALflnlERqNOrkVB7SoURnRCm3g9bAI1AlC2UmlaEboJWV9FGPS2t4jRea7PSnzDVzdOnQvsYpsZwgm42pnFL5ylDTKv6rZ2bKxkH8MWTGHmjPjMy2SM8C2j6qUafxdUDBZBxgGZjThB8w8j3yVUjdghtNe4bB7tzNUTwprsnI2663IrV2p3bU5GN4aE6BSa20sxg5/fUstHLQFCdjuN2N/duxAgOH4kL3WV/QHacIkZoMfs9BaS0VP//9udkzdHnUyJIN8SrZPn7+dRiNd/q5T11CGJ8zu2H7a+1+4A2eH8cvoyHw/y2/LhuH5Ntan6IyuMf);lineShape=1;" vertex="1" parent="1">
          <mxGeometry x="429.71328835171727" y="282.7969022442196" width="5.213423296565452" height="18.7633248731845" as="geometry" />
        </mxCell>
        <mxCell id="n3wLBkn1owKT0AHgR__0-17" value="" style="shape=stencil(lVbLkhoxDPyauaos+X3ebP5jq5YNVAhsseT199FkyoAE06ncBuO23VK3pCk+fWxf3jeThI/z6fh183P3et5O8dMksjtsN6fdWb+m+DzFp7fjafPldPx+eF1+v7/MO+evb8cf8wm/FhxnSmlGSfi9rBTi/Hfh87J/vzvc7Bem3M1+CcRhHRDvADFRruuAJJSyAaREra8DslApBqArSdYBJVJhD2BeB1ShbIMUO8UCAN0DJJIADk0fYAFcqYIntTwoXgCJBJBunYK7IRK3dUDXsEZ/QwEceqZmw8ptBPoxoJG4KKk0EKBTaTYPTBU9qVO30oiXI9YAoVrxVYrAD71SsPLOiQLwQ9c02bDmRj0BQKAWrEOZCgC06rWkgBYBQP1gHZc7JaTW4POgpBuIUm2UbR5So4QcVylb0knDAEgrwHk6CnVAWp/ULAfJUHyNh10u8sZFoGmmrZa02DKyaKXmPB2HQx5LgylVD+jIQOnuBtUv4KDyzlatIpC0GijaG6STAACHMPxyyVwdpWrtimQtNzcI0FGURHMNgqljUz8AIMup1ixr9VQCNxQNihXTXEgAIGsinPqugXvcR/PgeLkijcLwuFOrXrMnUUFcdRaIrtAoLWQhEmfqQgUYQryW1NMBPIgpOEs3iiBEYfTkmy7dQd27U6pWgITPv+ugqF0F3604UAI1TMaodp3dMmhumk37HNUocGb2FZVhMaq+JwSYq+4rEVYz8yhs19egIqGF0J2v0w4I5f/Owf/erx/Xofttt98vM/vt/35I16VlwI/PfwA=);lineShape=1;" vertex="1" parent="1">
          <mxGeometry x="419.0907451585052" y="294.7829890795899" width="25.097188729084564" height="11.600876564773444" as="geometry" />
        </mxCell>
        <mxCell id="n3wLBkn1owKT0AHgR__0-18" value="" style="shape=stencil(lVbLctswDPwaXTEEwAd4TtL/yEycWhPHzjju6+9LVkNXYCwkvFEUV8AuFhAnvnvfP77tJnLvl/PpZfdrfrrsJ76fiObjfneeL2U18cPEd8+n8+77+fTj+LQ8vz3Wk3X1evpZv/B7weUE2VUUuT/LDhFk+rfzbQEc5uMKgM6B04gUIPM2ooRgUQBhiAZAMoiOkB0EI6ck4KIGBBDZBkQGThqQAeM2wCegrAArHW4iGMFrRBZgS9jURLkCPLARIbWMr7KWAAYHBNScpezg9nnXU05sEvAQSZ2PpQjG95Eh6TKHDBy2ARQh6IxCiemNjLBZ+QogQCNCEEA3AiiSeB5JSSIwfiBtVK04ueueKqtRhuLkpCPUuln9KSCaQzWGFYFA/IjzhNrrtbUNa0SB0E0AMTmUMsXB/owQtUx1BFjuwzblvjhk0AF2E6CMMYM19RnVOWnUYXQQj56nvhk++TVwX7Qy0jhbA6xrZ6Sm2G1BfSvQlUBT7Hb+BEkHYDt/BqfHBZqm8x5IO8K2XAiQZOB8jJDzQD6p/KRwgK8U/47oWfre6+9/UrAcm99XjvAG4+HbyBcAZfH/8vM8Hw7L3Wn9vr8sla3losUPfwE=);lineShape=1;" vertex="1" parent="1">
          <mxGeometry x="427.2699465659628" y="399.0505263842492" width="4.100106868074363" height="8.505506295615078" as="geometry" />
        </mxCell>
        <mxCell id="n3wLBkn1owKT0AHgR__0-19" value="" style="shape=stencil(lVbLbhsxDPyavRIiqec5Tf8jQJzaqGsHjvv6+9JdaBPKu1P0tpZnJJGcITXpw9v+6XU3SXi7Xs5fdz8Pz9f9pJ8mkcNpv7scrvY16eOkDy/ny+7L5fz99Dz/fn26IW9f384/bjv8mnnMFPjGkvB7Xsmk+e/C5xl/PJw+4EUpJocX20G3CRopF0ewlVa3CbFSyY4QG0VAyEIxOkLKlMGVClP1McRCuW0TqpKqIzRShE+UPD5SSABfSXyOAlXexje+xwcB+EgSHJ57jtfxmYrfP/WMreOtZMP+jAmN6kBoxJjQfI1Np0hFRmCva5NdQjktFP2VYqCGkmQybp6QKKMYhHhQRSUOQBYWg4yEEAEhk9TxSsg6Jux2F3RBVxISHdPK6AQezWmFy0CrRsj+BK5dLFtXGvqFiS8ht0Uq/gSrG1BGLaS+DAzbSwsk/kLmThBAU5I04BtSaurKf+8ugt3Jfv9GGVsn+ZIxLhmHJcClyBFOETsieu+oUEB3MuH7nGrF/l8lFOid7LNUUs/D+hQx/w9pzd3gq4RkaR/yGrAyooz2tElRwJ2kjl2v2CQBUXPpdVq8YKMQXamfv2gvwtGjvcMteDMn0tK4v5UtgADC6GVVGHAgHtqRNVmIv1e2gAqEu17RoBO4R7fgI1WQH+u/w/5WYOADHSdzoQLgNi7uWiN46BSSYQT2cqybkniEown7v2/Tf+Pt4/0h/HI4Hud39Mf/x4ezLc2Pbn38Aw==);lineShape=1;" vertex="1" parent="1">
          <mxGeometry x="417.15024609342873" y="405.3335905171373" width="27.542714348989875" height="10.584526800754475" as="geometry" />
        </mxCell>
        <mxCell id="n3wLBkn1owKT0AHgR__0-20" value="" style="shape=stencil(lVbLbhsxDPyavQ5EUs9zmv5HgDj1oq4dOO7r78vtwq0px3R0k2WONBwOuZrk4W379LqZOLydjoevm5/z82k7yaeJed5vN8f5pKtJHid5eDkcN1+Oh+/75/X369MSuay+HX4sJ/xaca2gpQXF4fe6wwGV/+58XgG7eX8BoBAQgkGUCsq3EXqFVAOoCZRuA2pDtTc0Qgy3AUogZAvIYIdSFkixgAaW24BYwM0ALnR4FyFK2SJaRayOsAVZLCCiOpzKWfV/sjbE6FwAsjlXRnVECn3KJZ3r8r5GyGzic0XzEhYUW2YtCznW44xkGaWK6mQcCc1SSnqEQ0nPo3AFaE4NBFGuKHnezhC6Stqpckt99yyyOpTUycXecKdu6stqc1iMURwAn1X/oPP0POn607e2ppi6CeA3T2Lkwf7MyFamOyNA+6d1/ekPGQqgbgIQxKkc94yWOenIOjqIR+MZYejToL1g48k3XkHq4gnB8R1FUNc7aOTwZxRrO0Fy8hXpBSKwc36MYDtefMulhFIH4nMZ41P0IxUH8lV71Tagp/Z9tHreKZg2SF/hO6No9DXyAYAu/j9+Xubdbn07Xf7fP5Z0a31oyeMf);lineShape=1;" vertex="1" parent="1">
          <mxGeometry x="427.2882446540114" y="398.065888655409" width="4.0635106919771715" height="9.29124752674079" as="geometry" />
        </mxCell>
        <mxCell id="n3wLBkn1owKT0AHgR__0-21" value="" style="shape=stencil(lVjLUhwxDPyavapsy88zSf6DKpawFcJSC3n9fTTZ8oCkmaZyGxa3R5a6W/Ic+Obl4fb5eEjh5fVy/nb8dbp7fTjwp0NKp6eH4+X0Kk8H/nzgm/vz5fj1cv7xdHf9+/l2Wbk8fT//XHb4fcWNQbEuqBT+XH8pTNz//fLlCng8Pb0HMLWmAYly2gf0QSVqQKTGAFBpsH1DzQCQKbiQIjhDD9SKDamUfUBrFJIFxAAAicbQgDDztgmonUqwgAKyVKVMxQIYnKE0Kt0CEniDHJFdSBHUIWcq2QICODQ36h4AuMSRqq5DHjPRm4BUKXpABYBI2XApUgJcio2qyRJPSW0DMrHhUp2n2gYINzWXqgQJDj2mgNf1HZahTaLN9a1QiIAYM4NzfY9TsdtVI9YpHQUST6SlzxuD0AKoLVDXGR2dGCQoUNYJElNDahad6P3FcSrghESrpdkyTOh6urVgiRKMx/pdmB67F78uWMZCDlbHnGZJ9vKv8ymUykgzNh6RKYrfqX6hOIhH6GjiL9RBPuV0Op9ZBIBcxRljpQQEJut1BxRBov60Vn/lj/RQZCk0dP6l5yZQ3zjZu/K/wniidSyZGjD/Tf5lPWpNwRrcYhCQnyb/vVHDetT7Sz9vcH+rR5wfWW8GljwrvrM+6vzn1SL3/Ervz/kDvTejr04V5F8MV+8vesxAL5vrQTzirpr/0kIQn8us5rpeKg7q1aYbrA2jTwfeaZBJ7x/FH5CfSAfWAohMFRlWnn7w1sKwwqQHa4DMBMiBZALQLSbD8dLPQQyHdj9oMXRcP8nJelBhPyoyVIyfRRk6hB92hYOAEX6aZjiI+nE9UUcXCHcfSJBA/sKR4BTqbzSROrpjuStThBOHv5MF6KD+0hehA/lbZYBjur+24glxaUB2f9Qxxtpw3/EBx9N0vSo1UF9Z3/X+i8eAgglgmAI3PEQH18UWzQOP2ELIW/EpTFBcocz8sXOEuvF5zWKM4BC+cMu1GCjZM2P52oCp9J9fTD4GyMPbB5r70+Pj9fvO+//bDzry0/VjEH/+Cw==);lineShape=1;" vertex="1" parent="1">
          <mxGeometry x="143.89" y="462.71" width="204.43" height="5.39" as="geometry" />
        </mxCell>
        <mxCell id="n3wLBkn1owKT0AHgR__0-22" value="" style="shape=stencil(lVfZctswDPwavWJ4gNdzmv5HZuLUnrp2xnHb5O8LVUPVgKR18ybTXBLALg4O8eFt//S6G4J7u17O33e/D8/X/RC/DCEcTvvd5XCVryE+DvHh5XzZfbucf56ep9+vT+PO8evH+dd4wvuE40a5jqjgPqYVH4nb35WvE+B4ON0AYqaQFSA4YrcNCI04aUAil7YBvlpA5L6yDmAKTgFYfMjAJEc1KEBicgAgTnt9Q+Yet1UAZ6pFAYojD25IlULUgEQB3CDnJU1cdeTKNqAyJX2DrHDcBrTUhTADCqUAAIWi14AKpdEqFa2l2joz6wBRqzapecpIGk6CoplrETI3XqFtkjgUj53QXre7YQpa33JEu0OElqsYWUCOiousqb6JwzrCExd7RWKgJrFg4QQj+dWekjNAcgQ4IWIr2onG1ABzAsisAYEaIEJM8jqFmqOGnY6aCFkJADCeZwCVHBJToGqSVJIK1A2JSeUFAPAgUS+8MAn5UClG63REWpKCb3jw2OlGzYhPiEP6liphxIdbigCcqRuZGgqriM9Io+Kkzr2B3CYQ4oFtS7mbo8EixjKArvgsoHpLtbiVQGXK2XatUcDAhyTEauZEfRE1UmeprhEWprCYHoroG/jgpRxrbRRPCYhJivVyFgDSCLY/pAz77qJjcYW6kMFCp1usvYWtDzO2wUXXI7AuI/JmfhMGgD0+2clEJjqPAhQoagbGGRToVAx2pob1KrguomDLsIOth2UwqmY/KvMy7fls9iPGuNiiLRwCf2VIN/3c9cFpPcucPd/DESb53lhnimH9TXOSzxKFikixh29Omd55N/eb6Zkasj/YlJQhDlchI2nv+8pWgJwBBKjQTz+r/gMgH/9ecS+H43F6BN7+b199sjS9GOPjHw==);lineShape=1;" vertex="1" parent="1">
          <mxGeometry x="130" y="450" width="75.44" height="29.84" as="geometry" />
        </mxCell>
        <mxCell id="n3wLBkn1owKT0AHgR__0-23" value="" style="shape=stencil(lVhJcttADHyNrqjZl7Pj/MNVlmNVHMslK9vv04xqFAFjtqKbRE6TA3SjgeEm3r0/P7xtN8G9Hw/7r9ufu8fj8yZ+2oSwe33eHnZH/NrE+028e9oftl8O+++vj6f/bw/LyuXXt/2P5Qm/TjgnrS6g4H6fLiQnzv+98vm0/mX3erG+SI12fenr632UVDTAi28E0CREC8hxHRCi1GQBlWwpdBtD7NLSOiBmaV0D8kjbhwBsoGUN8OICAVSJTQFClkqylINkA3DjER8DqiRNtE8jqo+JDoOmAegSScxlUkaURkKukIFejwDIfmqW4M1658j6Lk5z4KWTBDVk1AhVOom3gSCn1jdKQGuStIh8EEcA3Uk3gEJ31KMEHTEoyISCniUFTZmjOepdggakLp3UJgBZk5zhB8ReAKhadbmLJzQD0HX1Q4iJALw762YgapKcb3kFtFL5nkwQrQ8u/zNNoKaUW4jAFc+obtbnL/Kwhsg6alwJjDrcNoA4ErcGcDqIVqUwNVXrwyjyztJUbdRwncpiqKPCzmpCd2FvaOK1a+TCKwI2oLOU/bUsVeNLMGJGNZTgJwAv0hSnLXEbqH4Kmuu7O5vWxrdkvA/EtSs2oIlrkDdLa7ctGuKj0uhSTMnFa0FHU9TnCllj2hr+9RotOgi81LE93QzIo0ediYDiGSBMFQQA61qYQI2YoHiibzTSqN8AuTLvQ6cuZqLMtC8uo4CWawpjWFmdNXQMmChZ0PMwEys11+rtNAZAIdJAFzRpxVDqSAyY94LxmTIUvzZRmgaBoTSQLeG2ER8eUdkYXa1XwjYCMSaE2HXQEF8hb8Ac37U0aqTiW84OOku10qFsPp3AmCKbT6bzDwCZtKD5hAVAv+UI1zydmKYjIurDkZDdGF0un08CcHb/KCdGmpNgekOh5z0nXsuuBmrczh4cIKJM8+Om5paJSqf1MLxM+Jr2k68938Sb+Ag95RP2yBQ68QV3TKRmJj0snwzo+ts+SVxfjx//vn887V5eTp9PLu/b7yW4dPrWEu//AA==);lineShape=1;" vertex="1" parent="1">
          <mxGeometry x="499.455223055366" y="454.0526206341632" width="160.99573868411994" height="6.728597629017941" as="geometry" />
        </mxCell>
        <mxCell id="n3wLBkn1owKT0AHgR__0-24" value="" style="shape=stencil(rVbLbttADPwaXQk+9sE9p+l/BIhTG3XtwHHb5O9L111Xy0gMCvQmyxxxZ0nOcJK7l+3D82ZifDmfjl83P3eP5+0knybm3WG7Oe3O9jTJ/SR3T8fT5svp+P3weP39/HCJvDx9O/64fOH1iuMCuVxQjG9/3kBLv198vsbvd4dZfCKQMZ4EENcBBYHamECgBhkUoeYBIAIq64BmFHQAJIGk6wBC7EfuiKyQW3CmBjiSqARc1gHVOMoAUAaidUBGKCMJo4UcFKJAGo/UFDjIYJVzhWgtJC0ZZOQwu7hFBNsH2adIwZk4gTjWFTQoHSOkNAJyb+DlWmu/9huAoQYcqEIZM1jxS8CBrDdGDlrCe7UJYwcQaBHpAjpWzpoJgxES9rdkQ9VqAFA/1QbQgENKfoKUQKPuU1D0pEsw1dluKflrpRwApFOcFY6iDDajbiAsZwSgLlyz5qNILBVwnCBr76hbTbjQZWjhkaSCoAeElaY+kDNADXSGc+/Nmc5E6srUu3+mZCmaOIXiAPLRiPoM2Id2LUNyzWefCG7JOLjCaerN8n8AUoDHI1UTssggGHS0xWKAyHjVe1ZOfaSWM6hXvmS1jzjU3v03p06x8ar3LNPCHAlZd7SbA3HvleUE7xyLujgvxqPXmNaleSXciZ5NX3Aaa8rRDa1gwSyz9xGJFdW7CIME4dV3A4XSRegdwV4E6mtboPOoeFWwGU7q4ilaLczA2MWX4Dz8zqCoV2PNY/9pD/443h7+Lt1Pu/3+urPP//dLur26Lvhy/ws=);lineShape=1;" vertex="1" parent="1">
          <mxGeometry x="647.6650120710309" y="445.966744755215" width="14.745897396440796" height="28.06557402653584" as="geometry" />
        </mxCell>
        <mxCell id="n3wLBkn1owKT0AHgR__0-27" value="student" style="shape=parallelogram;html=1;strokeWidth=2;perimeter=parallelogramPerimeter;whiteSpace=wrap;rounded=1;arcSize=12;size=0.23;" vertex="1" parent="1">
          <mxGeometry x="383.32" y="100" width="100" height="60" as="geometry" />
        </mxCell>
        <mxCell id="n3wLBkn1owKT0AHgR__0-28" value="&lt;font style=&quot;font-size: 15px;&quot;&gt;data&lt;/font&gt;" style="strokeWidth=2;html=1;shape=mxgraph.flowchart.database;whiteSpace=wrap;" vertex="1" parent="1">
          <mxGeometry x="680" y="100" width="100" height="94.77" as="geometry" />
        </mxCell>
        <mxCell id="n3wLBkn1owKT0AHgR__0-29" value="" style="shape=stencil(lVhJchsxDHyNrijuy9lx/uEqy5EqiuWS5Sy/DxiF9BDQdEk3ecwmia3R4MY/vO+e3rYbZ97Pp+P37a/983m38V82zu1fd9vT/sy/Nv5x4x9ejqftt9Px4/X58vfbU1vZfv04/mw7/L7gaqGaG8qZP5cv1hgy5t+nrxfEYf+6RHhKdkLUSj4AAO8XJcCmdUBJ5MwMyJQdADgyZQYEqnEdkDNFATCUgA3ZkwsToETKwEupyisVQ9ECQCQ7n5AjOQ8AloKbAHxmBYA4nDgAgRJwawxk50gnQwGdwCb6CdDOBJEOWXopJqoIwMmXJKAggCGf5JUciLTPZLMEFOAlH3qYBqBQAanhrSwgdqup6wDH9VVnwNjiOiBTmCsu+R7K64BAZjaa0zGjK1nyAlDIgDhY9om4EmcriINN0oZsYQFZztbZS9lRQSdYyrMNXOUVMZ9M1hxgGJLkDK5oFGfbU3+xPiKfdtpd3P8/rV1db6S9KcPaMXJ/TuwK9xdJxOVdgL2jz/T1npMO0IuRDOk8TFImK9HaPHlQyab3jGEvBZRwFOfrGCrAO45sEcsduIzrpg3nUAC2Dss+23gnvpX1efa9wxzElTFzVmOxfMf6gGtL3Sey84E3lb1MWHe5k8nBgPuraHEtIpGjkqFxA6wVkWuZsxsoFs7lmRuSg+pA1Uq0sBPrWqyw66la556T7uES5vcI/K+4KkO5pajQdlm7xrTz7ljyKmLGyxXvG5jKqq0YqF1127LQ87ovOiimdeMNd3b2CFWllg4sxoE3tTaplBHPKvFjXf9yo7ziPoFEqBZwNkITtERkJ0NNqUSozbC5NJkrAIUSMLoJaQGonWLWpLoYBlpNgyvxMCC81OoIAUJn8AHAU1wc8mUAKjlwAsvmOKcGRwYFrjWV2UtMi6jtsagVo2sIvVzXBksvqo3TG6gOHl1F4NhvHgB4OJatoMBW08bvOVt5PnFAG+gBnwEFGK2fEBiQ0AnqlaKNTKD91SpzqZ0AKo4BcmRyUCwyQEyinCyIJ+toqIuRCeVSHQPSQrOgAX/xcjMQGU4oVxCcLmjE15cqTAxoaFJm19EAbnRse8xB/VOFrj0XAat1crQtUKzvfyS7AcE/Pl/lXvaHw+VRb/l/+YrHny4vgP7xLw==);lineShape=1;" vertex="1" parent="1">
          <mxGeometry x="526.0295058112338" y="131.316405785572" width="136.3795083124346" height="7.102949138850931" as="geometry" />
        </mxCell>
        <mxCell id="n3wLBkn1owKT0AHgR__0-30" value="" style="shape=stencil(lVfbchoxDP2afdVYlm96TtP/yExIYUohQ2ib/H1FdzasBZywb4vRsXU5OpYHeXhbP72uhhjejof9z9XfzfNxPci3IcbNbr06bI72NcjjIA8v+8Pqx2H/e/c8/n59Olmevn7t/5x2eB9xKVHkEyqGj3GFmTj9X/k+Arab3QwgiaT1gEbMtwGxUCkdwFZCBACmIh1AhDJwyQDcA1IkzQBQqfZB50AabgOSUOhjKJEScCkLpdwDGhXgUim+DrXAOjSm3APaZ2WuAjRTij1A4Qlap6xPAA3E6ASloD2AYdAG0D4GtbyBOlwBZIr4BO9SpYBOuAy6UapL0mpnZtAPatzsucQhYJ/ClJTZEYiurU0NNgNE0HLNOrL6qFGPGtdqz28tsCEMEF0MaWrzW4DU64wlrqGgM2XnkukCiqGSuA5SqoDf9nfus2SJVlxqDh5QgEvnnNx7QqGmS2LQTxm6M0vGnBqX1GHG5jtLbUekRWSyIJzgf0FX248dmXBDmA61RS1nWYy9bnzV1VbZeuETEo7FgGp3FPtCMNCynH0QJgyocom9+FWFih/VTw9VJoW+zibja99zdlOiGIyufQi5UQMhCGkfQeZph6v2F+SWNsnIjf2djNnwgTr6PH7N5it0xUX2EZtkgIwKe1YwZLYNX67ZbFZCCc2TnpztI1AkqRSLs0d9Izppw9me0exmg5L3JxdgLyTq8oPmKpugtc+PtR3Ifyp+ljStAYQzez+skmD71uenQMKZvVNfG3hQfi7vWTw7L31h3AGwj/OD5mWz3Y7vofn//gFkS+PjSR7/AQ==);lineShape=1;" vertex="1" parent="1">
          <mxGeometry x="500" y="120.79" width="42.2" height="33.87" as="geometry" />
        </mxCell>
        <mxCell id="n3wLBkn1owKT0AHgR__0-31" value="" style="shape=stencil(lVbLkhoxDPyauaos+X3ebP5jq5YNVAhsseT199FkyoAE06ncBuO23VK3pCk+fWxf3jeThI/z6fh183P3et5O8dMksjtsN6fdWb+m+DzFp7fjafPldPx+eF1+v7/MO+evb8cf8wm/FhxnSmlGSfi9rBTi/Hfh87J/vzvc7Bem3M1+CcRhHRDvADFRruuAJJSyAaREra8DslApBqArSdYBJVJhD2BeB1ShbIMUO8UCAN0DJJIADk0fYAFcqYIntTwoXgCJBJBunYK7IRK3dUDXsEZ/QwEceqZmw8ptBPoxoJG4KKk0EKBTaTYPTBU9qVO30oiXI9YAoVrxVYrAD71SsPLOiQLwQ9c02bDmRj0BQKAWrEOZCgC06rWkgBYBQP1gHZc7JaTW4POgpBuIUm2UbR5So4QcVylb0knDAEgrwHk6CnVAWp/ULAfJUHyNh10u8sZFoGmmrZa02DKyaKXmPB2HQx5LgylVD+jIQOnuBtUv4KDyzlatIpC0GijaG6STAACHMPxyyVwdpWrtimQtNzcI0FGURHMNgqljUz8AIMup1ixr9VQCNxQNihXTXEgAIGsinPqugXvcR/PgeLkijcLwuFOrXrMnUUFcdRaIrtAoLWQhEmfqQgUYQryW1NMBPIgpOEs3iiBEYfTkmy7dQd27U6pWgITPv+ugqF0F3604UAI1TMaodp3dMmhumk37HNUocGb2FZVhMaq+JwSYq+4rEVYz8yhs19egIqGF0J2v0w4I5f/Owf/erx/Xofttt98vM/vt/35I16VlwI/PfwA=);lineShape=1;" vertex="1" parent="1">
          <mxGeometry x="409.83" y="196" width="25.1" height="6.37" as="geometry" />
        </mxCell>
        <mxCell id="n3wLBkn1owKT0AHgR__0-32" value="" style="shape=stencil(lVbZctswDPwave4QAA/wOU3/IzNxak1dO+O419+XqkZOCKtw9UaRXHFx7JKDPLztn153A4e3y/n0dfdzfL7sB/k0MI/H/e48XtpokMdBHl5O592X8+n78Xn+fn2adk6jb6cf0x9+zbjKSGVCcfg9zxChxL8zn2fAYTx+BAhy6AAsYHEACdoDRJGSA2jL1AGSghwAhYDQH6EZ5HEqEO0ANSDlfwO02iBqRHLSVBQh94CC7FDKAukLUeuSh1VALODaV+49D6sIIcRqjwgOJ7pSvgIyCjtRg0zQspBcPwDUx9zyTE7MwYasEdnhc1297g8+H0Hpy1zyoo9VALflnlERqNOrkVB7SoURnRCm3g9bAI1AlC2UmlaEboJWV9FGPS2t4jRea7PSnzDVzdOnQvsYpsZwgm42pnFL5ylDTKv6rZ2bKxkH8MWTGHmjPjMy2SM8C2j6qUafxdUDBZBxgGZjThB8w8j3yVUjdghtNe4bB7tzNUTwprsnI2663IrV2p3bU5GN4aE6BSa20sxg5/fUstHLQFCdjuN2N/duxAgOH4kL3WV/QHacIkZoMfs9BaS0VP//9udkzdHnUyJIN8SrZPn7+dRiNd/q5T11CGJ8zu2H7a+1+4A2eH8cvoyHw/y2/LhuH5Ntan6IyuMf);lineShape=1;" vertex="1" parent="1">
          <mxGeometry x="419.77" y="164.41" width="5.21" height="35.59" as="geometry" />
        </mxCell>
      </root>
    </mxGraphModel>
  </diagram>
</mxfile>
